<svg width="174" height="24" viewBox="0 0 174 24" fill="none" xmlns="http://www.w3.org/2000/svg">
<rect width="24" height="24" rx="12" fill="white"/>
<path d="M16.5755 10.9112H13.8926C13.8736 10.6892 13.8229 10.4878 13.7404 10.3071C13.6611 10.1263 13.5501 9.97093 13.4074 9.84091C13.2679 9.70772 13.0982 9.60624 12.8985 9.53647C12.6987 9.46353 12.4719 9.42706 12.2182 9.42706C11.7742 9.42706 11.3985 9.53488 11.0908 9.75053C10.7864 9.96617 10.5549 10.2754 10.3963 10.6781C10.2409 11.0809 10.1633 11.5645 10.1633 12.129C10.1633 12.7252 10.2425 13.2246 10.4011 13.6274C10.5628 14.027 10.7959 14.3282 11.1004 14.5312C11.4048 14.731 11.7711 14.8309 12.1992 14.8309C12.4434 14.8309 12.6622 14.8007 12.8556 14.7405C13.0491 14.6771 13.2172 14.5867 13.3599 14.4693C13.5026 14.352 13.6183 14.2109 13.7071 14.046C13.7991 13.8779 13.8609 13.6892 13.8926 13.4799L16.5755 13.4989C16.5438 13.9112 16.4281 14.3314 16.2283 14.7595C16.0285 15.1845 15.7446 15.5777 15.3768 15.9392C15.0121 16.2976 14.5602 16.5862 14.0211 16.805C13.482 17.0238 12.8556 17.1332 12.1421 17.1332C11.2478 17.1332 10.4455 16.9413 9.73514 16.5576C9.02795 16.1739 8.46822 15.6094 8.05596 14.8642C7.64687 14.1189 7.44232 13.2072 7.44232 12.129C7.44232 11.0444 7.65163 10.1311 8.07023 9.38901C8.48883 8.64376 9.05332 8.08087 9.76368 7.70032C10.474 7.3166 11.2668 7.12473 12.1421 7.12473C12.7573 7.12473 13.3234 7.20877 13.8403 7.37685C14.3572 7.54493 14.8107 7.7907 15.2008 8.11416C15.5908 8.43446 15.9048 8.82928 16.1426 9.29863C16.3805 9.76797 16.5248 10.3055 16.5755 10.9112Z" fill="#0A946A"/>
<path d="M41.695 21.4675C35.885 21.4675 32 17.4425 32 11.9825C32 6.55747 35.885 2.53247 41.695 2.53247C43.9 2.53247 45.86 3.19747 47.365 4.49247V8.37747C46 7.04747 44.215 6.17247 42.08 6.17247C38.615 6.17247 35.99 8.69247 35.99 12.0175C35.99 15.3425 38.615 17.8275 42.08 17.8275C44.215 17.8275 46 16.9525 47.365 15.6225V19.5075C45.86 20.8025 43.9 21.4675 41.695 21.4675Z" fill="white"/>
<path d="M60.0902 21.4325C54.4902 21.4325 50.3602 17.4425 50.3602 11.9825C50.3602 6.55747 54.4902 2.53247 60.0902 2.53247C65.7252 2.53247 69.8552 6.55747 69.8552 11.9825C69.8552 17.4425 65.7252 21.4325 60.0902 21.4325ZM60.0902 17.8275C63.4502 17.8275 65.9702 15.3075 65.9702 11.9825C65.9702 8.62247 63.4502 6.13747 60.0902 6.13747C56.7652 6.13747 54.2802 8.62247 54.2802 11.9825C54.2802 15.3075 56.7652 17.8275 60.0902 17.8275Z" fill="white"/>
<path d="M83.4385 2.53247C87.2885 2.53247 90.7535 4.87747 90.7535 10.4425V21.0825H86.6935V11.0375C86.6935 7.15247 84.4885 5.99747 82.2135 5.99747C79.3435 5.99747 77.4535 7.85247 77.4535 11.3175V21.0825H73.3935V2.91747H76.8235L77.3835 5.96247C78.5035 3.79247 80.5335 2.53247 83.4385 2.53247Z" fill="white"/>
<path d="M106.619 2.91747H110.854L103.749 21.0825H99.6536L92.2336 2.91747H96.5736C100.389 12.9275 101.229 15.4475 101.754 17.5825C102.174 15.2025 102.979 12.7875 106.619 2.91747Z" fill="white"/>
<path d="M120.945 2.53247C126.475 2.53247 130.43 6.38247 130.255 13.3125H115.66C115.905 16.1475 118.25 18.1075 121.26 18.1075C123.85 18.1075 125.53 16.7775 126.3 15.2025L129.835 15.5875C128.855 18.8425 125.495 21.4325 121.225 21.4325C115.695 21.4325 111.635 17.6875 111.635 12.0175C111.635 6.62747 115.52 2.53247 120.945 2.53247ZM120.945 5.78747C118.075 5.78747 115.87 7.67747 115.66 10.2675H126.125C126.02 7.71247 123.92 5.78747 120.945 5.78747Z" fill="white"/>
<path d="M143.824 2.53247C147.674 2.53247 151.139 4.87747 151.139 10.4425V21.0825H147.079V11.0375C147.079 7.15247 144.874 5.99747 142.599 5.99747C139.729 5.99747 137.839 7.85247 137.839 11.3175V21.0825H133.779V2.91747H137.209L137.769 5.96247C138.889 3.79247 140.919 2.53247 143.824 2.53247Z" fill="white"/>
<path d="M163.754 2.53247C169.284 2.53247 173.239 6.38247 173.064 13.3125H158.469C158.714 16.1475 161.059 18.1075 164.069 18.1075C166.659 18.1075 168.339 16.7775 169.109 15.2025L172.644 15.5875C171.664 18.8425 168.304 21.4325 164.034 21.4325C158.504 21.4325 154.444 17.6875 154.444 12.0175C154.444 6.62747 158.329 2.53247 163.754 2.53247ZM163.754 5.78747C160.884 5.78747 158.679 7.67747 158.469 10.2675H168.934C168.829 7.71247 166.729 5.78747 163.754 5.78747Z" fill="white"/>
</svg>
